<svg version="1.2" baseProfile="tiny-ps" xmlns="http://www.w3.org/2000/svg" viewBox="0 0 386 218" width="386" height="218">
	<title>logo-svg</title>
	<style>
		tspan { white-space:pre }
		.s0 { fill: #ffffff } 
	</style>
	<path id="Layer" fill-rule="evenodd" class="s0" d="m47.8 176.1c0.1 0.9 0.4 1.5 0.8 1.8c0.4 0.4 1.1 0.5 2 0.5c1.7 0 2.5-0.7 2.5-2c0-0.6-0.2-1.1-0.5-1.4c-0.3-0.3-0.9-0.5-1.6-0.7l-1.5-0.2c-2.8-0.5-4.2-1.9-4.2-4.3c0-1.4 0.5-2.6 1.4-3.4c1-0.8 2.2-1.3 3.8-1.3c1.5 0 2.7 0.4 3.6 1.2c0.9 0.8 1.4 2 1.5 3.4h-2.8c0-0.8-0.3-1.3-0.7-1.6c-0.4-0.3-1-0.5-1.7-0.5c-0.8 0-1.3 0.2-1.7 0.5c-0.4 0.3-0.6 0.8-0.6 1.5c0 0.5 0.2 1 0.5 1.3c0.3 0.3 0.9 0.5 1.6 0.7l1.6 0.3c2.7 0.5 4 1.9 4 4.4c0 1.6-0.5 2.8-1.5 3.6c-1 0.8-2.3 1.2-4 1.2c-1.7 0-3-0.4-3.9-1.2c-0.8-1-1.3-2.2-1.4-3.8h2.8zm25.6-8.2v-2.6h-10.9v2.6h4v13h3v-13h3.9zm13.9 9.9l0.9 3h3.1l-5.5-15.5h-2.4l-5.5 15.5h3.1l0.9-3h5.4zm-0.8-2.4h-3.8l1.9-6l1.9 6zm14.8-0.7h2.4l2.9 6.3h3.4l-3.4-6.8c0.8-0.4 1.5-0.9 2-1.6c0.5-0.7 0.7-1.6 0.7-2.6c0-1.4-0.5-2.6-1.4-3.4c-0.9-0.8-2.1-1.2-3.6-1.2h-5.9v15.5h2.9l0-6.2zm2.8-2.7h-2.8v-4.2h2.8c0.7 0 1.2 0.2 1.6 0.6c0.4 0.4 0.6 0.9 0.6 1.5c0 0.7-0.2 1.2-0.6 1.6c-0.4 0.4-0.9 0.6-1.6 0.6v-0.1zm16.1-6.6h-2.9v15.5h9.7v-2.6h-6.8l0-12.9zm17.4 0h-2.9v15.5h2.9v-15.5zm19.9 15.5v-15.5h-2.9v9.7l-5.7-9.7h-2.9v15.5h3.1v-9.7l5.7 9.7h2.7zm13.5-7l3.8 6.9h3.4l-5.4-9.3l5-6.2h-3.5l-5.4 7.2v-7.2h-2.9v15.5h2.9v-4.3l2.1-2.6zm-121.6-27.8l-3.9 3.8h34.5c93-93.4 226.9-110 261-112.8v-0.1c-186.1 10.7-272.1 90.3-291.6 109.1z" />
	<path id="Layer" class="s0" d="m113.9 127.8c5.6-4.4 11.5-8.8 17.2-12.7l47.2 34.8h-34.1l-30.3-22.1zm-7.4-31.7c-6.2 3.6-12.9 7.8-18.7 11.7l-40-29.3h34.1l24.6 17.6z" />
</svg>